<svg width="100" height="100" viewBox="0 0 100 100" xmlns="http://www.w3.org/2000/svg">
  <defs>
    <linearGradient id="brainGradient" x1="0%" y1="0%" x2="100%" y2="100%">
      <stop offset="0%" style="stop-color:#ff6f00;stop-opacity:1" />
      <stop offset="100%" style="stop-color:#ff8f00;stop-opacity:1" />
    </linearGradient>
  </defs>
  
  <!-- Brain outline -->
  <path d="M30,20 Q20,15 25,25 Q15,30 20,40 Q10,45 15,55 Q12,65 25,70 Q30,80 45,75 Q55,85 70,80 Q85,85 85,70 Q90,60 85,50 Q90,40 85,30 Q85,20 75,25 Q70,15 60,20 Q50,10 40,20 Q35,15 30,20Z" 
        fill="url(#brainGradient)" opacity="0.8"/>
  
  <!-- Neural network connections -->
  <g stroke="#ff6f00" stroke-width="1.5" fill="none" opacity="0.6">
    <path d="M25,30 L35,25 L45,30 L55,25 L65,30"/>
    <path d="M20,45 L30,40 L40,45 L50,40 L60,45 L70,40"/>
    <path d="M25,60 L35,55 L45,60 L55,55 L65,60"/>
    
    <!-- Cross connections -->
    <path d="M30,35 L40,50 L30,65"/>
    <path d="M50,35 L60,50 L50,65"/>
    <path d="M35,40 L55,45 L45,60"/>
  </g>
  
  <!-- Neural nodes -->
  <g fill="#ff6f00">
    <circle cx="25" cy="30" r="2"/>
    <circle cx="35" cy="25" r="2"/>
    <circle cx="45" cy="30" r="2"/>
    <circle cx="55" cy="25" r="2"/>
    <circle cx="65" cy="30" r="2"/>
    
    <circle cx="20" cy="45" r="2"/>
    <circle cx="40" cy="45" r="2"/>
    <circle cx="60" cy="45" r="2"/>
    
    <circle cx="25" cy="60" r="2"/>
    <circle cx="45" cy="60" r="2"/>
    <circle cx="65" cy="60" r="2"/>
  </g>
</svg>