<svg width="512" height="512" viewBox="0 0 512 512" xmlns="http://www.w3.org/2000/svg">
  <rect width="512" height="512" fill="#1a237e" rx="100"/>
  
  <g transform="translate(256, 256)">
    <!-- Brain outline -->
    <path d="M-100 -50c0-40 30-65 65-65s65 25 80 25 40-25 80-25 65 25 65 65c0 25-12 50-12 75s12 50 12 75c0 40-30 65-65 65s-65-25-80-25-40 25-80 25-65-25-65-65c0-25 12-50 12-75s-12-50-12-75z" 
          fill="white" opacity="0.9"/>
    
    <!-- Neural connections -->
    <g stroke="#ff6f00" stroke-width="8" fill="none">
      <path d="M-60 -25l50 25M-10 0l50-25M40 -25l50 25"/>
      <path d="M-25 50l25-25M0 25l25 25"/>
    </g>
    
    <!-- Connection nodes -->
    <circle cx="-60" cy="-25" r="10" fill="#ff6f00"/>
    <circle cx="-10" cy="0" r="10" fill="#ff6f00"/>
    <circle cx="40" cy="-25" r="10" fill="#ff6f00"/>
    <circle cx="90" cy="0" r="10" fill="#ff6f00"/>
    <circle cx="25" cy="50" r="10" fill="#ff6f00"/>
  </g>
</svg>