<svg width="192" height="192" viewBox="0 0 192 192" xmlns="http://www.w3.org/2000/svg">
  <rect width="192" height="192" fill="#1a237e" rx="40"/>
  
  <g transform="translate(96, 96)">
    <!-- Brain outline -->
    <path d="M-40 -20c0-15 12-25 25-25s25 10 30 10 15-10 30-10 25 10 25 25c0 10-5 20-5 30s5 20 5 30c0 15-12 25-25 25s-25-10-30-10-15 10-30 10-25-10-25-25c0-10 5-20 5-30s-5-20-5-30z" 
          fill="white" opacity="0.9"/>
    
    <!-- Neural connections -->
    <g stroke="#ff6f00" stroke-width="3" fill="none">
      <path d="M-25 -10l20 10M-5 0l20-10M15 -10l20 10"/>
      <path d="M-10 20l10-10M0 10l10 10"/>
    </g>
    
    <!-- Connection nodes -->
    <circle cx="-25" cy="-10" r="4" fill="#ff6f00"/>
    <circle cx="-5" cy="0" r="4" fill="#ff6f00"/>
    <circle cx="15" cy="-10" r="4" fill="#ff6f00"/>
    <circle cx="35" cy="0" r="4" fill="#ff6f00"/>
    <circle cx="10" cy="20" r="4" fill="#ff6f00"/>
  </g>
</svg>