<svg width="80" height="80" viewBox="0 0 80 80" xmlns="http://www.w3.org/2000/svg">
  <defs>
    <radialGradient id="nodeGradient" cx="50%" cy="50%" r="50%">
      <stop offset="0%" style="stop-color:#1a237e;stop-opacity:1" />
      <stop offset="100%" style="stop-color:#283593;stop-opacity:1" />
    </radialGradient>
  </defs>
  
  <!-- Connection lines -->
  <g stroke="#283593" stroke-width="2" fill="none" opacity="0.6">
    <path d="M20,20 L40,40 L60,20 L60,60 L40,40 L20,60 L20,20"/>
    <path d="M40,10 L40,40 L70,40"/>
    <path d="M10,40 L40,40 L40,70"/>
    <path d="M15,15 L40,40 L65,15"/>
    <path d="M15,65 L40,40 L65,65"/>
  </g>
  
  <!-- Main nodes -->
  <circle cx="40" cy="40" r="6" fill="url(#nodeGradient)"/>
  <circle cx="20" cy="20" r="4" fill="#ff6f00"/>
  <circle cx="60" cy="20" r="4" fill="#ff6f00"/>
  <circle cx="20" cy="60" r="4" fill="#ff6f00"/>
  <circle cx="60" cy="60" r="4" fill="#ff6f00"/>
  
  <!-- Secondary nodes -->
  <circle cx="40" cy="10" r="3" fill="#283593"/>
  <circle cx="70" cy="40" r="3" fill="#283593"/>
  <circle cx="40" cy="70" r="3" fill="#283593"/>
  <circle cx="10" cy="40" r="3" fill="#283593"/>
  
  <!-- Corner connectors -->
  <circle cx="15" cy="15" r="2" fill="#ff8f00"/>
  <circle cx="65" cy="15" r="2" fill="#ff8f00"/>
  <circle cx="15" cy="65" r="2" fill="#ff8f00"/>
  <circle cx="65" cy="65" r="2" fill="#ff8f00"/>
</svg>