<svg width="32" height="32" viewBox="0 0 32 32" xmlns="http://www.w3.org/2000/svg">
  <defs>
    <radialGradient id="brainGradient" cx="50%" cy="50%" r="50%">
      <stop offset="0%" style="stop-color:#1a237e;stop-opacity:1" />
      <stop offset="100%" style="stop-color:#283593;stop-opacity:1" />
    </radialGradient>
  </defs>
  
  <!-- Background circle -->
  <circle cx="16" cy="16" r="15" fill="white" stroke="#1a237e" stroke-width="2"/>
  
  <!-- Brain outline -->
  <path d="M8 12c0-2 1.5-3 3-3s3 1 4 1 2.5-1 4-1 3 1 3 3c0 1-0.5 2-0.5 3s0.5 2 0.5 3c0 2-1.5 3-3 3s-3-1-4-1-2.5 1-4 1-3-1-3-3c0-1 0.5-2 0.5-3S8 13 8 12z" 
        fill="url(#brainGradient)" opacity="0.8"/>
  
  <!-- Neural connections -->
  <g stroke="#ff6f00" stroke-width="1" fill="none" opacity="0.7">
    <path d="M10 14l4 2M14 16l4-2M18 14l4 2"/>
    <path d="M12 18l2-2M16 16l2 2"/>
  </g>
  
  <!-- Connection nodes -->
  <circle cx="10" cy="14" r="1" fill="#ff6f00"/>
  <circle cx="14" cy="16" r="1" fill="#ff6f00"/>
  <circle cx="18" cy="14" r="1" fill="#ff6f00"/>
  <circle cx="22" cy="16" r="1" fill="#ff6f00"/>
  <circle cx="16" cy="18" r="1" fill="#ff6f00"/>
</svg>